<?xml version="1.0" encoding="UTF-8" standalone="no"?>
<!DOCTYPE svg PUBLIC "-//W3C//DTD SVG 1.1//EN" "http://www.w3.org/Graphics/SVG/1.1/DTD/svg11.dtd">
<svg width="100%" height="100%" viewBox="0 0 512 470" version="1.1" xmlns="http://www.w3.org/2000/svg" xmlns:xlink="http://www.w3.org/1999/xlink" xml:space="preserve" xmlns:serif="http://www.serif.com/" style="fill-rule:evenodd;clip-rule:evenodd;stroke-linejoin:round;stroke-miterlimit:2;">
    <g transform="matrix(1,0,0,1,0,-21.0152)">
        <path d="M234.661,490.333C105.278,490.333 0,385.058 0,255.676C0,126.293 105.278,21.015 234.661,21.015C279.651,21.015 323.423,33.835 361.247,58.112C368.672,62.893 370.848,72.791 366.067,80.236C361.27,87.681 351.391,89.833 343.946,85.056C311.307,64.084 273.507,53.014 234.661,53.014C122.918,53.014 31.999,143.933 31.999,255.676C31.999,367.414 122.918,458.334 234.661,458.334C346.399,458.334 437.318,367.414 437.318,255.676C437.318,248.996 436.998,242.383 436.381,235.88C435.529,227.067 441.971,219.259 450.759,218.407C459.591,217.595 467.376,223.997 468.231,232.786C468.954,240.317 469.317,247.953 469.317,255.676C469.317,385.058 364.043,490.333 234.661,490.333Z" style="fill-rule:nonzero;"/>
        <path d="M261.324,309.006C257.23,309.006 253.133,307.448 250.02,304.315L154.023,208.318C147.773,202.064 147.773,191.932 154.023,185.682C160.272,179.432 170.405,179.432 176.655,185.682L261.347,270.375L484.676,47.042C490.93,40.792 501.062,40.792 507.312,47.042C513.562,53.291 513.562,63.424 507.312,69.674L272.652,304.334C269.515,307.448 265.421,309.006 261.324,309.006Z" style="fill-rule:nonzero;"/>
    </g>
</svg>
