<svg width="100%" height="100%" viewBox="0 0 291 512" version="1.1" xmlns="http://www.w3.org/2000/svg" xmlns:xlink="http://www.w3.org/1999/xlink" xml:space="preserve" xmlns:serif="http://www.serif.com/" style="fill-rule:evenodd;clip-rule:evenodd;stroke-linejoin:round;stroke-miterlimit:2;"><g transform="matrix(1,0,0,1,-110.5,1)"><g transform="matrix(1,0,0,1,110,-1)"><path d="M180,512L98.008,512C84.313,512 73.172,500.859 73.172,487.164L73.172,302.227L25.336,302.227C11.641,302.227 0.5,291.082 0.5,277.391L0.5,198.145C0.5,184.449 11.641,173.309 25.336,173.309L73.172,173.309L73.172,133.625C73.172,94.277 85.527,60.801 108.898,36.82C132.375,12.73 165.184,0 203.777,0L266.309,0.102C279.98,0.125 291.102,11.266 291.102,24.938L291.102,98.516C291.102,112.211 279.965,123.352 266.273,123.352L224.172,123.367C211.332,123.367 208.062,125.941 207.363,126.73C206.211,128.039 204.84,131.738 204.84,141.953L204.84,173.305L263.109,173.305C267.496,173.305 271.746,174.387 275.398,176.426C283.277,180.828 288.176,189.152 288.176,198.148L288.145,277.395C288.145,291.082 277.004,302.223 263.309,302.223L204.84,302.223L204.84,487.164C204.84,500.859 193.695,512 180,512ZM103.188,481.984L174.82,481.984L174.82,288.789C174.82,279.645 182.262,272.207 191.402,272.207L258.129,272.207L258.156,203.324L191.398,203.324C182.258,203.324 174.82,195.887 174.82,186.742L174.82,141.953C174.82,130.227 176.012,116.891 184.863,106.867C195.559,94.75 212.414,93.352 224.164,93.352L261.086,93.336L261.086,30.109L203.754,30.016C141.73,30.016 103.188,69.719 103.188,133.625L103.188,186.742C103.188,195.883 95.75,203.324 86.609,203.324L30.516,203.324L30.516,272.207L86.609,272.207C95.75,272.207 103.188,279.645 103.188,288.789L103.188,481.984ZM266.25,30.117L266.254,30.117L266.25,30.117Z" style="fill-rule:nonzero;"/></g></g></svg>
