<svg width="100%" height="100%" viewBox="0 0 512 299" version="1.1" xmlns="http://www.w3.org/2000/svg" xmlns:xlink="http://www.w3.org/1999/xlink" xml:space="preserve" xmlns:serif="http://www.serif.com/" style="fill-rule:evenodd;clip-rule:evenodd;stroke-linejoin:round;stroke-miterlimit:2;"><g transform="matrix(1,0,0,1,-0.00171572,-106.707)"><path d="M489.25,335.681C478.113,322.334 465.531,310.417 453.362,298.892C449.086,294.841 444.662,290.652 440.402,286.493C440.401,286.492 440.4,286.491 440.399,286.49C434.669,280.901 431.864,276.934 431.571,274.004C431.283,271.124 433.251,266.851 437.778,260.535C444.547,251.035 451.762,241.519 458.742,232.317C464.946,224.137 471.36,215.678 477.508,207.171L478.888,205.261C490.883,188.659 503.285,171.492 509.931,150.572C511.829,144.574 513.8,135.698 509.046,127.906C504.29,120.112 495.473,117.802 489.259,116.744C486.224,116.224 483.344,116.181 480.664,116.181L402.858,116.112C389.406,115.888 380.074,122.264 374.988,135.068C370.918,145.294 366.111,157.145 360.542,168.387C349.887,190.09 336.348,215.087 316.724,235.914L315.852,236.842C314.516,238.268 312.333,240.6 311.212,241.135C309.086,239.799 306.633,232.158 306.745,228.155C306.748,228.056 306.749,227.958 306.749,227.86L306.68,137.957C306.68,137.5 306.648,137.043 306.587,136.59C304.842,123.764 301.44,110.906 281.14,106.9C280.489,106.771 279.827,106.707 279.165,106.707L198.23,106.707C183.003,106.707 174.949,113.68 168.492,121.24C166.623,123.444 161.657,129.296 164.187,136.45C166.747,143.689 174.375,145.134 176.879,145.608C185.699,147.282 190.26,152.267 191.672,161.797C194.463,180.314 194.805,200.123 192.75,224.106C192.177,230.545 191.111,235.439 189.391,239.509C188.915,240.636 188.497,241.334 188.205,241.745C187.739,241.557 187.014,241.197 186.01,240.51C179.812,236.269 175.141,229.676 170.624,223.302C152.582,197.829 137.406,169.695 124.223,137.28C118.794,123.997 108.588,116.578 95.504,116.386C70.576,115.971 47.521,115.981 25.045,116.418C14.444,116.602 7.01,119.939 2.946,126.338C-1.123,132.749 -0.974,140.923 3.39,150.637C34.586,220.007 62.912,270.471 95.232,314.265C117.989,345.097 140.897,366.499 167.324,381.619C195.09,397.504 226.404,405.289 262.732,405.288C266.863,405.288 271.066,405.187 275.325,404.984C297.738,403.963 306.857,395.048 307.852,373.219C308.41,361.682 309.694,352.336 314.149,344.216C315.395,341.943 316.801,340.419 317.909,340.14C319.087,339.846 321.176,340.567 323.499,342.076C327.746,344.834 331.403,348.574 334.41,351.857C337.458,355.194 340.538,358.641 343.519,361.974C349.862,369.071 356.421,376.41 363.293,383.41C378.836,399.254 396.754,406.52 416.571,404.998L487.776,405.031L487.78,405.031C488.006,405.031 488.232,405.024 488.458,405.009C496.671,404.462 503.772,399.915 507.942,392.531C512.963,383.639 512.887,372.376 507.735,362.391C502.359,352.01 495.384,343.075 489.25,335.681ZM490.181,382.502C489.199,384.241 487.988,384.558 487.363,384.634L416.173,384.601L416.166,384.601C415.885,384.601 415.604,384.612 415.325,384.636C401.3,385.804 389.379,380.874 377.851,369.124C371.312,362.462 364.914,355.305 358.727,348.383C355.712,345.01 352.595,341.521 349.463,338.093C345.579,333.851 340.778,328.976 334.609,324.97C325.373,318.975 317.719,319.156 312.926,320.364C308.183,321.559 301.441,324.969 296.266,334.413C289.562,346.632 288.083,359.814 287.481,372.267C287.133,379.883 285.845,381.895 285.307,382.406C284.602,383.076 282.246,384.254 274.385,384.613C236.609,386.389 204.907,379.624 177.454,363.917C153.572,350.253 132.66,330.626 111.645,302.155C80.22,259.576 52.57,210.268 21.995,142.278C20.887,139.815 20.545,138.278 20.446,137.455C21.226,137.199 22.75,136.862 25.422,136.813C47.67,136.382 70.484,136.37 95.187,136.782C98.569,136.832 102.42,137.847 105.336,144.982C119.11,178.851 135.021,208.326 153.981,235.094C159.015,242.199 165.281,251.043 174.49,257.344C182.925,263.12 189.77,262.844 194.028,261.596C198.288,260.347 204.2,256.877 208.182,247.449C210.751,241.372 212.304,234.529 213.073,225.883C215.27,200.23 214.88,178.902 211.848,158.785C209.711,144.372 202.269,133.96 190.546,128.643C192.628,127.559 194.974,127.107 198.232,127.107L278.109,127.107C282.603,128.115 283.493,129.299 283.798,129.704C285.092,131.425 285.832,135.496 286.284,138.677L286.352,227.751C286.172,236.29 290.322,255.228 304.452,260.421C304.568,260.464 304.685,260.504 304.802,260.542C317.666,264.746 326.175,255.665 330.743,250.786L331.557,249.92C353.053,227.105 367.528,200.447 378.837,177.412C384.731,165.517 389.723,153.213 393.944,142.607C396.056,137.288 397.978,136.412 402.564,136.509C402.627,136.511 402.689,136.511 402.753,136.511L480.658,136.58C482.47,136.58 484.361,136.601 485.828,136.852C489.54,137.484 491.069,138.254 491.573,138.573C491.625,139.164 491.613,140.864 490.491,144.412C484.84,162.201 473.919,177.315 462.358,193.317L460.977,195.23C454.97,203.542 448.627,211.905 442.494,219.994C435.424,229.315 428.116,238.952 421.187,248.678C406.373,269.347 407.675,283.063 426.162,301.095C430.531,305.36 435.009,309.602 439.341,313.704C451.622,325.337 463.223,336.324 473.576,348.73C478.996,355.264 485.14,363.111 489.618,371.759C491.954,376.286 491.381,380.376 490.181,382.502Z" style="fill-rule:nonzero;"/></g></svg>
